<svg xmlns="http://www.w3.org/2000/svg" xmlns:xlink="http://www.w3.org/1999/xlink" id="Layer_1" x="0px" y="0px" viewBox="0 0 511.999 511.999" style="enable-background:new 0 0 511.999 511.999;" xml:space="preserve"><g>	<g>		<g>			<path d="M432.326,296.548H321.933c50.775-24.583,85.875-76.632,85.875-136.726c0-35.782-12.258-69.505-34.843-96.652h26.827     V15.081h16.504V0H95.703v15.081h16.504v48.089h26.828c-22.585,27.147-34.843,60.87-34.843,96.652     c0,60.094,35.099,112.143,85.875,136.726H79.674C35.742,296.548,0,332.29,0,376.222c0,38.456,27.163,70.925,64.119,78.118v57.659     H447.88v-57.665c36.994-7.232,64.119-39.684,64.119-78.113C512,332.29,476.258,296.548,432.326,296.548z M119.273,159.822     c0-36.76,14.385-71.109,40.549-97.013v0.36h64.119V48.088h-96.652V15.081h257.423v33.008h-47.883l13.585,12.989     c27.287,26.093,42.314,61.161,42.314,98.743c0,75.391-61.336,136.726-136.727,136.726     C180.609,296.548,119.273,235.213,119.273,159.822z M120.222,496.919H79.199v-41.03c0.159,0.001,0.315,0.007,0.474,0.007     c14.342,0,28.35-3.918,40.549-11.181V496.919z M184.341,496.919h-49.038v-63.8c7.421-7.215,13.367-15.823,17.473-25.312h31.565     V496.919z M248.459,496.919h-49.037v-89.112h49.037V496.919z M312.578,496.919H263.54v-89.112h49.038V496.919z M376.697,496.919     h-49.038v-89.112h31.565c4.109,9.5,10.062,18.113,17.473,25.315V496.919z M432.8,496.919h-41.023v-52.209     c12.211,7.271,26.213,11.186,40.549,11.186c0.159,0,0.316-0.006,0.474-0.007V496.919z M439.525,440.378l-0.091,0.011     c-2.368,0.287-4.692,0.426-7.107,0.426c-15.337,0-30.214-5.53-41.927-15.6c-8.622-7.318-15.168-16.814-18.929-27.461     l-1.776-5.028H142.306l-1.776,5.028c-3.761,10.646-10.307,20.142-18.965,27.492c-11.675,10.04-26.553,15.569-41.891,15.569     c-2.415,0-4.74-0.14-7.198-0.437c-32.72-3.563-57.395-31.144-57.395-64.157c0-35.616,28.976-64.593,64.593-64.593h352.653     c35.617,0,64.593,28.977,64.593,64.593C496.919,409.234,472.245,436.815,439.525,440.378z"></path>			<path d="M40.074,376.222c0,21.835,17.764,39.599,39.599,39.599s39.6-17.764,39.6-39.599h-15.081     c0,13.519-10.999,24.519-24.519,24.519c-13.519,0-24.519-10.999-24.519-24.519c0-13.52,11-24.519,24.519-24.519h112.207v-15.081     H79.674C57.838,336.622,40.074,354.387,40.074,376.222z"></path>			<path d="M432.326,336.622H320.118v15.081h112.207c13.519,0,24.519,10.999,24.519,24.519c0,13.519-10.999,24.519-24.519,24.519     c-13.52,0-24.519-10.999-24.519-24.519h-15.081c0,21.835,17.764,39.599,39.6,39.599s39.6-17.764,39.6-39.599     C471.925,354.387,454.161,336.622,432.326,336.622z"></path>			<rect x="247.985" y="336.618" width="16.03" height="15.081"></rect>			<rect x="280.046" y="336.618" width="16.029" height="15.081"></rect>			<rect x="215.923" y="336.618" width="16.029" height="15.081"></rect>			<rect x="71.663" y="368.679" width="16.029" height="15.081"></rect>			<rect x="424.317" y="368.679" width="16.029" height="15.081"></rect>			<rect x="239.972" y="48.089" width="16.029" height="15.081"></rect>			<rect x="272.033" y="48.089" width="16.03" height="15.081"></rect>			<rect x="304.084" y="48.089" width="16.029" height="15.081"></rect>			<path d="M159.347,151.807h-15.081c0,57.19,46.528,103.718,103.718,103.718v-15.081     C199.11,240.444,159.347,200.682,159.347,151.807z"></path>			<rect x="264.02" y="240.444" width="16.03" height="15.081"></rect>		</g>	</g></g><g></g><g></g><g></g><g></g><g></g><g></g><g></g><g></g><g></g><g></g><g></g><g></g><g></g><g></g><g></g></svg>