<?xml version="1.0" encoding="UTF-8"?>
<svg xmlns="http://www.w3.org/2000/svg" version="1.1" viewBox="0 0 263 45">
  <path fill="white" d="M112.5.2h5.2c2,0,3,1.4,3,2.8s-.6,2.2-1.7,2.6c1.4.4,2,1.5,2,2.7s-1.3,3.2-3.6,3.2h-4.9V.2h0ZM118.5,3.4c0-.7-.4-1.2-1.4-1.2h-2.5v2.6h2.4c1,0,1.5-.6,1.5-1.3ZM118.9,7.8c0-.8-.5-1.5-1.6-1.5h-2.6v3h2.5c1.2,0,1.7-.7,1.7-1.6Z"/>
  <path fill="white" d="M122.2,9.1c0-1.8,1.4-2.3,2.6-2.5l1.7-.2c.6,0,1-.2,1-.9s-.5-1-1.4-1-1.6.4-1.8,1.2l-1.9-.4c.4-1.6,1.8-2.4,3.8-2.4s3.3.9,3.3,2.8v5.7h-1.9v-1.4c-.5,1-1.4,1.6-2.8,1.6s-2.7-.9-2.7-2.5h0ZM127.5,8v-.5c-.3.1-.6.2-1.1.3h-.9c-.6.2-1.3.4-1.3,1.1s.4,1,1.2,1c1.2,0,2-.8,2-1.9h0Z"/>
  <path fill="white" d="M131.1,7.3c0-2.6,1.3-4.3,3.6-4.3s2,.5,2.5,1.3V0h2v11.4h-1.9v-1.4c-.3.8-1.2,1.5-2.6,1.5-2.3,0-3.6-1.7-3.6-4.3h0ZM137.2,7.2c0-1.4-.7-2.4-2-2.4s-2,.9-2,2.4.7,2.4,2,2.4,2-1,2-2.5h0Z"/>
  <path fill="white" d="M140.8,7.4c0-2.5,1.4-4.4,4-4.4s3.8,1.9,3.8,4.3v.5h-5.8c.1,1.4.8,2.1,2,2.1s1.5-.4,1.7-1.1l1.9.4c-.5,1.5-1.8,2.3-3.7,2.3s-4-1.5-4-4.2h0ZM146.6,6.4c0-1.2-.6-1.8-1.8-1.8s-1.7.6-1.9,1.8h3.7Z"/>
  <path fill="white" d="M150.1,3.1h2v1.3c.5-1,1.4-1.4,2.6-1.4,1.9,0,2.8,1.1,2.8,3v5.4h-2.1v-5.1c0-1-.6-1.5-1.4-1.5s-1.8.7-1.8,2.1v4.5h-2s0-8.3,0-8.3Z"/>
  <path fill="white" d="M159,5h4.4v1.9h-4.4s0-1.9,0-1.9Z"/>
  <path fill="white" d="M164,.2h2.2l2,8.4,2.1-8.4h2.4l2.1,8.4,2-8.4h2.2l-2.9,11.2h-2.4l-2.2-8.3-2.2,8.3h-2.4l-2.9-11.2h0Z"/>
  <path fill="white" d="M179.8,8.6V3.1h2v5.1c0,1,.5,1.5,1.4,1.5s1.7-.8,1.7-2.1V3.1h2.1v8.3h-1.9v-1.4c-.4,1.1-1.3,1.6-2.5,1.6-1.8,0-2.8-1.1-2.8-3h0ZM181,.2h1.8v1.9h-1.8V.2ZM184.1.2h1.8v1.9h-1.8V.2Z"/>
  <path fill="white" d="M188.5,3.1h2v1.5c.3-1,1-1.6,2-1.6h.7v2h-.7c-1.4,0-2,.8-2,2.3v4.1h-2V3.1Z"/>
  <path fill="white" d="M195.7,9v-4.1h-1.4v-1.8h1.4v-1.9l2.1-.6v2.5h1.7v1.8h-1.7v3.8c0,.6.2.9.8.9h1v1.8h-1.6c-1.6,0-2.4-.8-2.4-2.4h0Z"/>
  <path fill="white" d="M201.9,9v-4.1h-1.4v-1.8h1.4v-1.9l2.1-.6v2.5h1.7v1.8h-1.7v3.8c0,.6.2.9.8.9h1v1.8h-1.6c-1.6,0-2.4-.8-2.4-2.4h0Z"/>
  <path fill="white" d="M207,7.4c0-2.5,1.4-4.4,4-4.4s3.8,1.9,3.8,4.3v.5h-5.8c.1,1.4.8,2.1,2,2.1s1.5-.4,1.7-1.1l1.9.4c-.5,1.5-1.8,2.3-3.7,2.3s-4-1.5-4-4.2h0ZM212.8,6.4c0-1.2-.6-1.8-1.8-1.8s-1.7.6-1.9,1.8h3.7Z"/>
  <path fill="white" d="M216.3,3.1h2v1.2c.4-.9,1.3-1.4,2.3-1.4s1.9.5,2.2,1.5c.5-1.1,1.5-1.5,2.6-1.5s2.6.9,2.6,2.7v5.8h-2v-5.3c0-.9-.5-1.3-1.3-1.3s-1.5.6-1.5,1.8v4.8h-2.1v-5.3c0-.9-.5-1.3-1.3-1.3s-1.5.6-1.5,1.8v4.8h-2.1V3.1h0Z"/>
  <path fill="white" d="M231.6,10.1v1.3h-1.9V0h2v4.4c.4-.8,1.3-1.4,2.6-1.4,2.3,0,3.6,1.7,3.6,4.3s-1.4,4.3-3.6,4.3-2.3-.7-2.6-1.5h0ZM235.7,7.3c0-1.5-.7-2.4-2-2.4s-2,.9-2,2.4.7,2.4,2,2.4,2-1,2-2.4h0Z"/>
  <path fill="white" d="M239,7.4c0-2.5,1.4-4.4,4-4.4s3.8,1.9,3.8,4.3v.5h-5.8c.1,1.4.8,2.1,2,2.1s1.5-.4,1.7-1.1l1.9.4c-.5,1.5-1.8,2.3-3.7,2.3s-4-1.5-4-4.2h0ZM244.7,6.4c0-1.2-.6-1.8-1.8-1.8s-1.7.6-1.9,1.8h3.7Z"/>
  <path fill="white" d="M248.3,3.1h2v1.5c.3-1,1-1.6,2-1.6h.7v2h-.7c-1.4,0-2,.8-2,2.3v4.1h-2V3.1Z"/>
  <path fill="white" d="M253.9,12.1l2-.4c.1.8.7,1.4,2,1.4s2.1-.7,2.1-1.9v-1.4c-.4.9-1.4,1.4-2.6,1.4-1.9,0-3.6-1.3-3.6-4s1.7-4.1,3.7-4.1,2.1.5,2.5,1.3v-1.1h2v7.7c0,2.6-1.9,3.8-4.1,3.8s-3.5-.9-4-2.6h0ZM259.9,7.1c0-1.5-.8-2.3-2-2.3s-2,.7-2,2.3.9,2.2,2,2.2,2-.7,2-2.3Z"/>
  <path fill="white" d="M112.1,24.7l1.2-.2c.1,1.9,1.4,2.7,3.1,2.7s2.5-.7,2.5-2-.9-1.7-2-2.1l-1.7-.5c-1.9-.6-2.8-1.4-2.8-3s1.5-3.1,3.7-3.1,3.7.9,3.9,2.9l-1.2.2c0-1.6-1.3-2.1-2.7-2.1s-2.4.6-2.4,1.9.8,1.7,2.1,2l1.6.5c1.7.5,2.8,1.2,2.8,3s-1.7,3.3-3.8,3.3-4.1-1.4-4.2-3.6h0Z"/>
  <path fill="white" d="M123,26.1v-5h-1.5v-1h1.5v-2.3l1.2-.3v2.6h1.9v1h-1.9v4.9c0,.8.2,1.1,1,1.1h1v1h-1.2c-1.3,0-2-.6-2-2h0Z"/>
  <path fill="white" d="M127.5,25.9c0-1.6,1.1-2.2,2.4-2.4l1.8-.3c.6,0,1.2-.3,1.2-1.1s-.6-1.4-1.8-1.4-2.1.5-2.2,1.5l-1.1-.2c.3-1.5,1.5-2.2,3.4-2.2s3,.8,3,2.5v5.7h-1.1v-1.6c-.5,1.1-1.5,1.8-2.9,1.8s-2.6-.8-2.6-2.3h0ZM132.9,24.6v-.8c-.3.2-.7.3-1.4.4l-1.2.2c-.7,0-1.7.3-1.7,1.4s.7,1.4,1.6,1.4c1.4,0,2.6-1,2.6-2.6Z"/>
  <path fill="white" d="M135.6,25.9c0-1.6,1.1-2.2,2.4-2.4l1.8-.3c.6,0,1.2-.3,1.2-1.1s-.6-1.4-1.8-1.4-2.1.5-2.2,1.5l-1.1-.2c.3-1.5,1.5-2.2,3.4-2.2s3,.8,3,2.5v5.7h-1.1v-1.6c-.5,1.1-1.5,1.8-2.9,1.8s-2.6-.8-2.6-2.3h0ZM141,24.6v-.8c-.3.2-.7.3-1.4.4l-1.2.2c-.7,0-1.7.3-1.7,1.4s.7,1.4,1.6,1.4c1.4,0,2.6-1,2.6-2.6Z"/>
  <path fill="white" d="M145.1,26.1v-5h-1.5v-1h1.5v-2.3l1.2-.3v2.6h1.9v1h-1.9v4.9c0,.8.2,1.1,1,1.1h1v1h-1.2c-1.3,0-2-.6-2-2h0Z"/>
  <path fill="white" d="M149.6,26.4v-9.7h1.2v9.4c0,.6.2,1,.9,1h.5v1h-.9c-1.1,0-1.7-.5-1.7-1.7h0Z"/>
  <path fill="white" d="M153.6,16.8h1.3v1.5h-1.3v-1.5ZM153.7,20h1.2v8h-1.2v-8Z"/>
  <path fill="white" d="M156.4,24.1c0-2.3,1.2-4.3,3.8-4.3s3,.9,3.2,2.6l-1.2.2c0-1.2-.9-1.8-2.1-1.8-1.8,0-2.6,1.3-2.6,3.1s.7,3.1,2.5,3.1,2-.6,2.2-1.9l1.1.2c-.3,1.7-1.5,2.7-3.4,2.7s-3.6-1.9-3.6-4.1h0Z"/>
  <path fill="white" d="M164.9,16.7h1.2v5c.5-1,1.4-1.7,2.8-1.7s2.6,1,2.6,2.7v5.5h-1.2v-5.3c0-1.3-.7-1.9-1.8-1.9s-2.5,1.1-2.5,2.9v4.2h-1.2v-11.4h0Z"/>
  <path fill="white" d="M173.1,24.1c0-2.5,1.4-4.3,3.7-4.3s3.4,1.8,3.4,4.2v.3h-5.9c0,1.9,1.1,2.8,2.6,2.8s1.8-.5,2.2-1.5l1.1.2c-.5,1.5-1.7,2.3-3.4,2.3s-3.7-1.5-3.7-4.1h0ZM179,23.4c-.1-1.5-.7-2.5-2.2-2.5s-2.3,1-2.5,2.5h4.7Z"/>
  <path fill="white" d="M185.7,24.7l1.2-.2c.1,1.9,1.4,2.7,3.1,2.7s2.5-.7,2.5-2-.9-1.7-2-2.1l-1.7-.5c-1.9-.6-2.8-1.4-2.8-3s1.5-3.1,3.7-3.1,3.7.9,3.9,2.9l-1.2.2c0-1.6-1.3-2.1-2.7-2.1s-2.4.6-2.4,1.9.8,1.7,2.1,2l1.6.5c1.7.5,2.8,1.2,2.8,3s-1.7,3.3-3.8,3.3-4.1-1.4-4.2-3.6h0Z"/>
  <path fill="white" d="M195.3,24.1c0-2.3,1.2-4.3,3.8-4.3s3,.9,3.2,2.6l-1.2.2c0-1.2-.9-1.8-2.1-1.8-1.8,0-2.6,1.3-2.6,3.1s.7,3.1,2.5,3.1,2-.6,2.2-1.9l1.1.2c-.3,1.7-1.5,2.7-3.4,2.7s-3.6-1.9-3.6-4.1h0Z"/>
  <path fill="white" d="M203.8,16.7h1.2v5c.5-1,1.4-1.7,2.8-1.7s2.6,1,2.6,2.7v5.5h-1.2v-5.3c0-1.3-.7-1.9-1.8-1.9s-2.5,1.1-2.5,2.9v4.2h-1.2v-11.4h0Z"/>
  <path fill="white" d="M212.1,26.4v-9.7h1.2v9.4c0,.6.2,1,.9,1h.5v1h-.9c-1.1,0-1.7-.5-1.7-1.7h0Z"/>
  <path fill="white" d="M215.6,24c0-2.6,1.5-4.2,3.8-4.2s3.8,1.6,3.8,4.2-1.5,4.2-3.8,4.2-3.8-1.6-3.8-4.2ZM222,24c0-2-1-3.1-2.6-3.1s-2.6,1.1-2.6,3.1,1,3.1,2.6,3.1,2.6-1.1,2.6-3.1ZM217.2,17.4h1.3v1.4h-1.3v-1.4ZM220.2,17.4h1.3v1.4h-1.3v-1.4Z"/>
  <path fill="white" d="M224.5,25.9l1.2-.3c.2,1.2,1.2,1.6,2.3,1.6s1.8-.4,1.8-1.3-.7-1.1-1.7-1.3l-1.1-.2c-1.2-.2-2.4-.7-2.4-2.2s1.2-2.3,2.9-2.3,2.9.8,3.1,2.2l-1.2.2c0-1-.9-1.4-2-1.4s-1.7.5-1.7,1.3.7,1.2,1.7,1.4l1,.2c1.3.3,2.5.6,2.5,2.2s-1.4,2.4-3,2.4-3.2-.7-3.4-2.4h0Z"/>
  <path fill="white" d="M232.3,25.9l1.2-.3c.2,1.2,1.2,1.6,2.3,1.6s1.8-.4,1.8-1.3-.7-1.1-1.7-1.3l-1.1-.2c-1.2-.2-2.4-.7-2.4-2.2s1.2-2.3,2.9-2.3,2.9.8,3.1,2.2l-1.2.2c0-1-.9-1.4-2-1.4s-1.7.5-1.7,1.3.7,1.2,1.7,1.4l1,.2c1.3.3,2.5.6,2.5,2.2s-1.4,2.4-3,2.4-3.2-.7-3.4-2.4h0Z"/>
  <path fill="white" d="M240,24.1c0-2.5,1.4-4.3,3.7-4.3s3.4,1.8,3.4,4.2v.3h-5.9c0,1.9,1.1,2.8,2.6,2.8s1.8-.5,2.2-1.5l1.1.2c-.5,1.5-1.7,2.3-3.4,2.3s-3.7-1.5-3.7-4.1h0ZM246,23.4c-.1-1.5-.7-2.5-2.2-2.5s-2.3,1-2.5,2.5h4.7Z"/>
  <path fill="white" d="M248.7,20h1.1v1.6c.4-1,1.1-1.7,2.3-1.7h.5v1.1h-.5c-1.7,0-2.4,1.2-2.4,3v4h-1.2v-8h0Z"/>
  <path fill="white" d="M112.4,42.2v-5.5h1.2v5.3c0,1.3.7,1.9,1.7,1.9,1.5,0,2.4-1.3,2.4-3v-4.2h1.2v8h-1.1v-1.6c-.5,1.1-1.4,1.7-2.7,1.7s-2.6-1-2.6-2.7h0Z"/>
  <path fill="white" d="M120.5,36.7h1.1v1.6c.4-1,1.4-1.8,2.8-1.8s2.6,1,2.6,2.7v5.5h-1.2v-5.3c0-1.3-.7-1.9-1.8-1.9s-2.5,1.1-2.5,2.9v4.2h-1.2v-8h0Z"/>
  <path fill="white" d="M128.5,40.7c0-2.2,1.1-4.2,3.5-4.2s2.3.7,2.7,1.5v-4.7h1.2v11.4h-1.1v-1.6c-.4,1-1.2,1.8-2.7,1.8-2.5,0-3.5-2-3.5-4.2ZM134.7,40.6c0-1.7-.8-3.1-2.5-3.1s-2.5,1.4-2.5,3.1.7,3.1,2.5,3.1,2.6-1.4,2.6-3.2h0Z"/>
  <path fill="white" d="M142,39.2c0-3.9,2.2-6,5.2-6s4.1,1.3,4.4,3.5l-1.2.3c-.2-1.7-1.4-2.7-3.2-2.7s-3.9,1.6-3.9,4.8,1,4.8,3.7,4.8,3.4-1.6,3.4-3.7h0c0,0-3.4,0-3.4,0v-1.1h4.6v5.7h-1.1v-1.8c-.7,1.3-1.9,2.1-3.6,2.1-3.4,0-4.8-2.7-4.8-5.8Z"/>
  <path fill="white" d="M153.1,42.6c0-1.6,1.1-2.2,2.4-2.4l1.8-.3c.6,0,1.2-.3,1.2-1.1s-.6-1.4-1.8-1.4-2.1.5-2.2,1.5l-1.1-.2c.3-1.5,1.5-2.2,3.4-2.2s3,.8,3,2.5v5.7h-1.1v-1.6c-.5,1.1-1.5,1.8-2.9,1.8s-2.6-.8-2.6-2.3h0ZM158.6,41.2v-.8c-.3.2-.7.3-1.4.4l-1.2.2c-.7,0-1.7.3-1.7,1.4s.7,1.4,1.6,1.4c1.4,0,2.6-1,2.6-2.6ZM154.6,34h1.3v1.4h-1.3v-1.4ZM157.6,34h1.3v1.4h-1.3v-1.4Z"/>
  <path fill="white" d="M161.3,36.7h1.1v1.6c.4-1,1.1-1.7,2.3-1.7h.5v1.1h-.5c-1.7,0-2.4,1.2-2.4,3v4h-1.2v-8h0Z"/>
  <path fill="white" d="M167.9,42.7v-5h-1.5v-1h1.5v-2.3l1.2-.3v2.6h1.9v1h-1.9v4.9c0,.8.2,1.1,1,1.1h1v1h-1.2c-1.3,0-2-.6-2-2h0Z"/>
  <path fill="white" d="M172.3,40.8c0-2.5,1.4-4.3,3.7-4.3s3.4,1.8,3.4,4.2v.3h-5.9c0,1.9,1.1,2.8,2.6,2.8s1.8-.5,2.2-1.5l1.1.2c-.5,1.5-1.7,2.3-3.4,2.3s-3.7-1.5-3.7-4.1h0ZM178.3,40c-.1-1.5-.7-2.5-2.2-2.5s-2.3,1-2.5,2.5h4.7Z"/>
  <path fill="white" d="M181,36.7h1.1v1.6c.4-1,1.4-1.8,2.8-1.8s2.6,1,2.6,2.7v5.5h-1.2v-5.3c0-1.3-.7-1.9-1.8-1.9s-2.5,1.1-2.5,2.9v4.2h-1.2v-8h0Z"/>
  <path fill="white" d="M93.5,43.4c0-.6-.6-1-1.2-1s-.1,0-.2,0c0,0,0,0,0,0v-.4c0-2.5-.2-4.9-.3-6.1,0,0,0-.3,0-.4,0-.1,0-.2,0-.3,0-.3,0-.5-.1-.5,0,0,0,0-.2-.1,0,0-.2,0-.2,0,0,0-.2,0-.3-.1-.2,0-.4-.1-.6-.3-.6-.3-1.1-.7-1.5-1.1-.4-.4-.8-.8-1-1.2-.4-.5-.7-1-.8-1.4,0-.1-.1-.2-.2-.3,0,0-.1-.1-.2,0-1.9,1-2.5,2.7-2.6,3.2.4.3,2.4,1.6,4.3,3.1h0c1.9,1.5,1.8,4.2,1.6,5.3-.3-.2-.7-.3-1-.3-1,0-1.9.8-1.9,1.9h-8.4c0-.4-.4-.8-.8-1,0-.2.1-.4.5-.7,0,0,4.9-4.2,5.1-4.3,0,0,.2-.2.2-.3,0-.2,0-.3,0-.4,0,0,0,0,0-.1-.3-.7-1-2.6.7-5.1.2-.4.5-.7.9-1.1.3-.3.4-.4.5-.5.4-.4.9-1.1,1.1-2,.2-.6.2-1.3,0-2,.7.4,1.6.9,2.6,1.1,1.5.3,2.6.1,3.5-.3,1.1-.6,1.7-1.7,1.8-2.7,0,0,0-.2,0-.3h0v-.3c0-.7-.2-1.4-.8-2-.4-.4-1-.6-1.8-.8-.6,0-1.3-.1-2.1,0-1.2.1-2.2.1-2.9,0-1,0-1.6-.2-1.9-.5-.3-.2-.4-.4-.5-.7-.2-.6-.1-1.1,0-1.5.1-.2.2-.4.3-.5.2-.2.3-.3.4-.4.1,0,.2-.2.3-.2.1-.1.2-.2.3-.3.3-.4.3-.9.3-1.3,0-.4-.1-.6-.2-.7,0,0,0,0,0,0,0,0-.2.1-.5.3-.4.2-.9.6-1.3,1-.4.4-.7.8-.9,1.3-.2.5-.3,1-.3,1.5s0,.9.3,1.3c.2.4.4.7.7.9.5.4,1.1.6,1.8.8.5.1,1,.2,1.6.2,1,0,1.9,0,2.8-.1,1,0,1.7,0,2.2.2.3.1.6.3.7.5.2.3.3.7.3,1.1,0,.7-.3,1.2-.7,1.6-.6.5-1.4.8-2.1.8s-1.3-.1-1.9-.4c-.5-.2-.9-.5-1.4-.8-.3-.2-.5-.4-.8-.7-.4-.3-.8-.7-1.3-1.1-.4-.3-.9-.6-1.5-.9-1.2-.5-2.1-1.1-2.9-1.6-.8-.5-1.5-1-2-1.6-.4-.3-.7-.6-1-.9,0,0-.4-.4-.4-.4h0s0,0,0,0c.2,0,.5,0,.8.1.3,0,.6.1.9.1.6,0,1.1,0,1.6-.1.4-.1.8-.4,1.1-.7.2-.3.4-.5.6-.8,0,0-.5,0-1.2-.2-.4,0-.8-.1-1.3-.2-.8-.2-1.5-.4-2-.6-.4-.2-.7-.3-.8-.3,0,0,0,0,0-.1,0,0,0,0,.1,0,.1,0,.3,0,.5.1,0,0,.2,0,.5.1s.6.2.9.2c.4,0,.8.2,1.3.2.3,0,.6,0,.9.1.4,0,.8,0,1.2,0,.3,0,.6-.2.8-.3.2-.1.3-.2.4-.4.4-.5.6-.9.7-1-1.5-.1-2.7-.3-3.6-.5-1-.2-1.6-.4-1.9-.5,0,0,0,0,0-.1,0,0,0,0,.1,0s.1,0,.2,0,.4,0,.5.1c.4,0,1,.2,1.7.3.6,0,1.3.1,2,.1.5,0,1,0,1.3-.3.3-.2.6-.4.8-.6.3-.5.6-.8.7-1-.7,0-1.4,0-2,0-.8,0-1.4-.1-2-.2-.7,0-1.2-.2-1.5-.2,0,0,0,0,0,0,0,0,0,0,0,0,0,0,0,0,0,0,0,0,.2,0,.3,0,0,0,.4,0,.5,0,.5,0,1.2.1,1.9.1.6,0,1.3,0,1.9,0,.7,0,1.1-.2,1.4-.4.3-.2.5-.4.7-.6,0,0,.1-.2.2-.2.2-.3.4-.7.5-.8-.5,0-.9,0-1.3.1-.9,0-1.7,0-2.4,0s-1.3-.1-1.6-.2c0,0-.2,0-.3,0,0,0-.2,0-.2,0,0,0,0,0,0,0,0,0,0,0,0,0h.2c0,0,.1,0,.2,0,.3,0,.8,0,1.3,0,.5,0,1.2,0,1.9,0,.5,0,1.1-.1,1.7-.2.3,0,.7-.2,1-.4.2-.1.4-.3.5-.5.3-.5.7-1.2.8-1.3-.9.1-1.7.2-2.4.2-1.1,0-2,0-2.6,0-.7,0-1.2,0-1.4-.1,0,0,0,0,0,0,0,0,0,0,0,0h.6c.7,0,1.7,0,2.9-.2.8,0,1.6-.2,2.4-.4.6-.1,1.1-.3,1.6-.4,1.1-.4,1.9-1,2.5-1.6s.9-1.3,1.1-1.8c0-.2.1-.3.1-.4s0-.3,0-.3c-1.4,1-3.5,1.6-5.6,2-2.3.4-4.5.6-5.8.7-.4,0-.8,0-1,0,0,0-.2,0-.4,0-.4,0-.6.2-.8.5-.1.1-.2.3-.2.5,0,0,0,.4-.1.4-.4,1.7-1,2.9-1.7,4-.5.7-1.1,1.4-1.8,2.2,0,0-.1.1-.2.2s0,0,0,0c0,0,0,0,0-.1,0,0,.1-.2.2-.3,0,0,0-.1.1-.2.1-.2.3-.5.4-.7.4-.6.7-1.4.9-2.2.2-.6.2-1.3.1-1.9,0-.3-.2-.7-.4-1,0,0,0,0,0,0,0,0,0,0,0,0,.5-.4.7-.8.7-1.1,0-.2,0-.4,0-.4,0,0-.4,0-.8,0-.4,0-.8,0-1.2-.3-.9-.5-1.6-.6-2.2-.7-1.2,0-1.9.4-2,.5-.2,0-1.4-.2-2.3,0-.6.2-1.2.5-1.4,1-.2.4-.2.8-.2,1,0,.1.1,0,.1,0,.4-.2.7-.3,1-.3s.6.1,1,.3c.6.3,1,.6,1.5,1.1,0,0,0,0,0,0,0,0,0,0,0,0h0c0,0,0,0,0,0-.5-.1-1-.2-1.3-.2-.6,0-1,.1-1.3.3-.2,0-.3.2-.4.3h0c0,0,0,0,0,.1,0,0,0,0,0,0h0s0,0,.1,0c.3,0,.8.2,1.4.4.2,0,.5.2.7.3.2,0,.4.2.6.3,0,0,0,0,.1,0,0,0,.1,0,.2,0s.2,0,.3,0c.1,0,.3-.1.4-.2s.2-.1.3-.2c.2,0,.2,0,.1,0,0,0,0,.1-.2.2,0,0,0,0,0,0-.2.1-.6.6-1.3,1.3-.5.5-1,1.2-1.7,2-.2.2-.4.5-.5.7,0,0-.3-.4-.5-.6-.3-.4-.7-.9-1.1-1.4-.3-.4-.6-.7-.7-.9.1-.2.2-.5.2-.8,0-.4-.1-.8-.3-1.1-.3-.4-.8-.7-1.3-.7h-.1s0,0,0,0v.2s0,0,0,0h0c.2,0,.4.2.5.4,0,.2.1.4.1.6,0,.2,0,.3-.1.5,0,.2-.2.3-.3.4,0,0,0,0,0,0v2c0,.1,0,.2.2.2.2,0,.3-.2.4-.3,0,0,0,0,0,0,0,0,.1.2.2.3.5.7,1.3,2.1,1.6,2.9-.7,1.4-.9,2.8-.7,4.1.2,1.4.8,2.7,1.5,3.5-.3.8-.8,1.8-1.3,2.6-.7,1.1-1.4,2.1-1.7,2.4h0c0,0,0,0,0,0,0-.1-.2-.2-.3-.3,0,0-.1,0-.2-.1-.1,0-.2,0-.2.2v2.3c0,0,0,0,0,0,.2.2.4.6.4,1,0,.6-.4,1-.8,1.1,0,0,0,0,0,0v.2s0,0,0,0h.1c.2,0,.3,0,.4,0,.5,0,.9-.4,1.1-.7.2-.3.4-.7.4-1.1,0-.2,0-.5,0-.7,0,0,0,0,0,0h0c0-.1,0-.2,0-.3.2-.3.7-.9,1.4-1.6.5-.5,1.1-1.1,1.7-1.6,0,0,.7-.6.9-.8.4-.4,1-.9,1.5-1.6.4-.5.7-1,.9-1.6,0,0,.1,0,.1,0,0,.2-.1.7-.3,1.1-.2.5-.6,1.2-1,1.7.5.2,1.1.4,1.8.7.7.3,1.5.7,2.2,1s1.3.7,1.7,1c.2.1.4.3.6.4,0,0,0,.4,0,.5-.1,1-.2,2.4.3,4.3.2.9.6,1.9,1.1,3.1.8,1.7,0,2.5-.4,2.9-.4.4-3.2,3.1-4.3,4.1-.3-.3-.8-.5-1.3-.5-1,0-1.9.8-1.9,1.9H26.3c-.1-.4-.3-.9-.4-1.2-.1-.3-.5-1.1-.5-1.2-.2-.5-.4-.8-.7-1-.3-.3-.6-.5-.9-.6-.5-.3-1.6-.8-3-1.6-.8-.4-1.6-.8-2.1-1.1-.4-.2-.3-.5-.2-.8.8-1.9,1.5-3.5,1.7-4.2.5-1.4.7-2.3.6-3.4,0-.4,0-.9,0-1.4,1.8-.7,4-1.6,5.1-2.2,1.1-.6,1.9-1.4,1.9-1.4,1.1.3,2.2.5,2.9.6,1.1.1,1.7.7,1.9,2.1.2,1.5.3,2.4.4,3.8,0,.5,0,.6.2.8,0,0,.2.1.2.1v1.4c0,0,1,.8,1,.8,0,0,0,0,0,0,0,0,.1,0,.1,0l-.2-7.9c0-1.3-.2-1.8-1.2-2.6-.2-.1-1.7-1.3-3.2-2.3-1-.7-1.9-1.4-2.4-1.7-.1,0-.2-.1-.2-.2,0,0,0,0,0-.1s0,0,.1,0c0,0,0,0,0,0,.5.2,1.3.6,3.1,1.9.1-.2.8-1.6-.5-2.7-1-.8-1.8-1.2-2.4-1.5,0,0-.1,0-.2-.1,0,0-.1,0,0-.1,0,0,0,0,.1,0s.2,0,.2,0c.5.2,1.7.5,3.4,2.1.2-.4.2-.8.2-1.3,0-.4-.2-.9-.8-1.4-1.1-.9-2.5-1.6-3.2-1.9,0,0,0,0-.1,0,0,0,0,0,0,0,0,0,0,0,0,0s0,0,.1,0c0,0,.1,0,.2,0,.7.2,2.4.7,4,2.2.2-.9.3-2,.4-2.9.1-1.1.2-2,.2-2,0-.5.2-.6.4-.8.2-.1.9-.5,1.2-.7.2-.1.2-.4.2-.4,0,0,0-1.1,0-1.3h0s0-.1-.1,0c0,0,0,0,0,0-.3.3-1.1.9-1.8,1.3-1,.7-1.1.8-1.3,1.7-.3,1.4-.6,2.3-.6,2.3-.8-.8-1.4-1.2-2.1-1.7s-1.4-.9-2.3-1.4c-1-.6-1.5-.9-1.9-1.2-.4-.2-.7-.5-1-.8,0,0,0,0,0-.1,0,0,0,0,0,0,.2.1.6.3,1,.4.2,0,.4.1.6.2.4,0,.6,0,.8-.2.5-.5,1.1-.7,1.7-.9.8-.2,1.5-.3,1.7-.3.2,0,.3-.4,0-.4-.3,0-1-.1-1.3-.2-.1,0-.2-.2,0-.3.1,0,.5-.2,1.2-.5.4-.2.8-.3.8-.9,0,0,0-.1,0-.2v-.2c0,0,0-.1,0-.2-.1-.1-.3-.2-.5-.1-.4,0-1.2,0-2.6,0-.8,0-1.8-.2-2.9-.2-.7,0-1.4,0-2.1,0-.3,0-.6.1-.9.2,0,0-.1,0-.2,0-.1,0-.2,0-.2-.1,0,0,0,0,0-.1,0-.7-.1-1.1-.2-1.5,0-.3-.2-.5-.2-.6,0,0,0-.2-.1-.2,0,0,0-.2-.1-.2,0,0,0,0,0,0h0s0,0,0,.1c0,.5.4,1.6-.2,2.5-.2.4-.7.8-1.4,1-.4.1-.8.3-1.5.4-.1-.9-.3-1.6-.5-2.2-.3-.7-.6-1.1-.7-1.2-.2-.2-.3,0-.2,0,0,0,0,.1,0,.2,0,.2.2.6.3,1.1.1.6.2,1.4.1,2.1-.2,0-.6,0-1.7.1-.5,0-1,0-1.7,0,0-.7-.2-1.2-.3-1.6-.3-1.1-.7-1.5-.8-1.6-.2-.2-.3-.1-.2,0,0,0,.2.8.4,1.6,0,.5.1,1.1,0,1.5-.6,0-1.2-.1-1.8-.3-.5,0-1-.2-1.4-.4-.3-1.7-.8-2.4-1-2.6-.1-.2-.2-.2-.2,0,0,0,.1.5.2,1,0,.4.1.8,0,1.2-.5-.2-1-.4-1.4-.6-.4-.2-.8-.4-1.2-.7,0,0-.2-.1-.3-.2-.2-.1-.3-.2-.4-.2s0,0,0,.1c0,0,0,0,0,0h0s0,0,0,.1c0,0,0,0,0,0,.7.9,3,2.4,6.3,3,1.4.3,2.8.4,4.1.4,2,0,3.7-.2,4.5-.7,0,.1-.2.4-.2.5-.1.3-.3.6-.4.9-.4.9-.5,1.4-.6,1.6,0,0,0,0,0,0s.3,0,.8-.2c.4-.1.8-.3,1.3-.7.2,1.5.6,2.5,1,3.5.3.7.7,1.4,1,2.3,0,.2.2.5.2.8.1.5,0,.9,0,1,0,.2-.2.6-.2.7-.5,1.1-1.1,2.3-1.9,3.5-1.3,1.7-3.1,3.5-6.5,5-1,.4-2.4.9-4,.4.3,1.3,1,1.7,1.8,1.8s1.5-.2,1.7-.4c.2-.1.4-.2.6-.4-.3.5-.5,1.1-.5,1.8,0,.7.2,1.5.8,2.2,1.8,1.9,3,3.2,2.8,5.5-.1,1.4-.5,1.9-.6,2.2-.1.4.1.6.3.7.1,0,3.6,1.6,5.6,2.5.8.4,1.2.5,1.5.6.2.1.4.2.6.3.4.3.4.6.5.9,0,0,0,.3.2.4.2,0,.4.1.4.1l.2,1.1h-14.9c-.4-2.3-1-5,1.2-6.9,2.1-1.8,4.3-3.2,4.3-3.2,0,0-.3-.9-1-1.8-.6-.8-1.3-1.3-1.7-1.4-.1,0-.2,0-.2,0-.1.3-.9,2.8-3.7,4-.6.2-.8.4-.8.7,0,.2-.1,1.9-.2,3.6,0,1.5-.2,2.9-.2,3.2h0c0,.2,0,.4.5.5v1.1H1v1.3h98v-1.3h-5.6ZM74.5,3.8c-.4.3-.9.4-.9.4,0,0-.3-.1-.5-.7h0c.5,0,1.2.1,1.4.2h0s0,0,0,0ZM23.6,3.5s0,0,0,0c.2,0,.3.1.3.1,0,0,0,0,0,0-.1.1-.4.3-.7.4-.5,0-.9-.2-.9-.2,0,0,.3-.4.8-.4.2,0,.4,0,.5,0h0ZM88.4,42.9c.4,0,.8.2.9.5h-1.8c.1-.3.5-.5.9-.5ZM73.5,42.9c.4,0,.8.2.9.5h-1.8c.1-.3.5-.5.9-.5Z"/>
  <path fill="white" d="M35.9,31c.2,4.7,3.9,8.5,8.2,10,1.9.7,3.9,1,5.9,1s4-.3,5.9-1c4.3-1.5,8-5.3,8.2-10,.4-8.5.7-19.2.9-27.8v-.5l-.5-.2c-2.6-.9-5.4-1.5-8.1-1.9-2.1-.3-4.3-.5-6.4-.5-2.2,0-4.3.2-6.4.5-2.8.4-5.5,1-8.1,1.9l-.5.2v.5c.3,8.6.5,19.3.9,27.8ZM50,1.6c4.6,0,9.2.7,13.6,2.1-.1,8-.3,18-.5,25.8v1.5c-.3,6.5-7.1,10.3-13.1,10.3s-12.8-3.8-13.1-10.3v-1.5c-.3-7.8-.4-17.9-.6-25.8,4.4-1.4,9-2,13.6-2.1Z"/>
  <path fill="white" d="M41.6,28.2c.7,0,1.1,0,1.3-.1.2,0,.2-.2.2-.3-.4.1-.8.2-1.3.1-.6,0-.7-.4-.7-.6h0s0,0,0,0h0c-.2.3,0,.7.6.8h0Z"/>
  <path fill="white" d="M60.4,32.1c-.4-.2-.7-.4-.7-.4,0-.4-.2-1.1-.5-1.7-.2-.4-.3-.7-.5-.9h0c.6-.2,1.1-.8,1-1.6,0-.9-.9-1.9-3-1.5-.7.1-1.4.4-1.9.6-.6.2-1.2.5-1.9.8-.7.2-1.3.4-1.8.3-.4,0-.7-.2-.9-.5-.3-.4.1-.8.3-.9.3-.2.5-.5.4-1-.3,0-.8.2-1.1.5-.3.2-.6.6-.6,1.1,0,.6.5,1.1,1.2,1.3.5.1.9.2,1.3,0,.7,0,1.5-.4,2.9-.9,1.4-.5,2.1-.8,2.7-.8.4,0,.7,0,1,.2.2,0,.4.2.5.3.1.2.2.3.2.5,0,.3-.2.6-.6.7,0,0-.2,0-.3,0-.1,0-.2,0-.4,0-.4,0-.9-.2-1.8,0-.5,0-1.1.2-1.9.4-1.6.5-2.7.7-3.6.7-1.3,0-2-.2-2.6-.5,0-.5-.2-1-.4-1.4-.3-.6-.6-1-.8-1.2,0,0,.1,0,.2-.5-.3,0-.8.1-.8.1,0,0-.8-.5-2-.4-.4,0-.7.2-.8.4-.9.3-1,.4-1.2.5-.2,0-.1.2-.1.2,0,0,0,.1,0,.1,0,0,0,0,0,.1,0,.3,0,.2,0,.5,0,0,.1,0,.2,0,.6-.2,1.1,0,1.1.4,0,.4-.3.6-.7.6h-.2c0,0-.1,0-.1,0,0,0,.1.3.1.4,0,.2.1.2.3.2.3,0,.7,0,.8-.1,0,0,0,.4.1.9-1-.4-1.8-.5-2.6-.4-.9,0-1.4.2-1.8.4-.7.4-.7.9-.7.9,0,0,1,.2,1.4.1.3,0,.5-.3.5-.3,0,0,.7.1,1.5.6.4.2.9.5,1.3.9,0,0,1.1-.5,1.1-.5.1,0,.2,0,.2,0,0,0,0,.2,0,.3-.1,0-.8.4-1.5.8-.4.3-.9.6-1.4.8-.3,0-.5,0-.8,0-.7,0-1.1.6-1.1,1h2.6c.1,0,1.2-.3,2.3-.5.8-.2,1.6-.3,2-.4.2,0,.3,0,.3,0,0,0,.1,0,.2,0,0,0,0,0,.1-.2,0,0,.1-.3.1-.3h.6c.8-.1,1.4-.3,2-.5.8-.2,1.4-.6,2-.8.7-.3,1.3-.6,1.8-.6,0,.5,0,.9.1,1.3,0,.4.1.7,0,1.2-1.5,0-1.3,1-1.3,1h2.6s.2-.6.6-1.3c.2-.3.4-.6.7-.9,0,0,0-.1,0-.2-.3-.4-.5-1.2-.5-1.2,0-.1.1-.2.1-.2,0,0,.2,0,.2.1,0,0,0,.6.6,1.1.3.3.8.6,1.2.8.5.2,1,.4,1.4.5.4.1.5.3.5.3h-.2c-.2,0-.5,0-.7.3s-.2.7-.2.7h1.8c.2,0,.3-.1.4-.4,0-.2.3-1,.3-1.1,0-.3,0-.4,0-.5-.2-.2-.5-.4-.7-.5h0ZM43.4,26.3c.3-.2.6-.2.9-.2,0,.5-.8.7-.9.2Z"/>
  <path fill="white" d="M60.4,21.5c-.4-.2-.7-.4-.7-.4,0-.4-.2-1.1-.5-1.7-.2-.4-.3-.7-.5-.9h0c.6-.2,1.1-.8,1-1.6,0-.9-.9-1.9-3-1.5-.7.1-1.4.4-1.9.6-.6.2-1.2.5-1.9.8-.7.2-1.3.4-1.8.3-.4,0-.7-.2-.9-.5-.3-.4.1-.8.3-.9.3-.2.5-.5.4-1-.3,0-.8.2-1.1.5-.3.2-.6.6-.6,1.1,0,.6.5,1.1,1.2,1.3.5.1.9.2,1.3,0,.7,0,1.5-.4,2.9-.9,1.4-.5,2.1-.8,2.7-.8.4,0,.7,0,1,.2.2,0,.4.2.5.3.1.2.2.3.2.5,0,.3-.2.6-.6.7,0,0-.2,0-.3,0-.1,0-.2,0-.4,0-.4,0-.9-.2-1.8,0-.5,0-1.1.2-1.9.4-1.6.5-2.7.7-3.6.7-1.3,0-2-.2-2.6-.5,0-.5-.2-1-.4-1.4-.3-.6-.6-1-.8-1.2,0,0,.1,0,.2-.5-.3,0-.8.1-.8.1,0,0-.8-.5-2-.4-.4,0-.7.2-.8.4-.9.3-1,.4-1.2.5-.2,0-.1.2-.1.2,0,0,0,.1,0,.1,0,0,0,0,0,.1,0,.3,0,.2,0,.5,0,0,.1,0,.2,0,.6-.2,1.1,0,1.1.4,0,.4-.3.6-.7.6h-.2c0,0-.1,0-.1,0,0,0,.1.3.1.4,0,.2.1.2.3.2.3,0,.7,0,.8-.1,0,0,0,.4.1.9-1-.4-1.8-.5-2.6-.4-.9,0-1.4.2-1.8.4-.7.4-.7.9-.7.9,0,0,1,.2,1.4.1.3,0,.5-.3.5-.3,0,0,.7.1,1.5.6.4.2.9.5,1.3.9,0,0,1.1-.5,1.1-.5.1,0,.2,0,.2,0,0,0,0,.2,0,.3-.1,0-.8.4-1.5.8-.4.3-.9.6-1.4.8-.3,0-.5,0-.8,0-.7,0-1.1.6-1.1,1h2.6c.1,0,1.2-.3,2.3-.5.8-.2,1.6-.3,2-.4.2,0,.3,0,.3,0,0,0,.1,0,.2,0,0,0,0,0,.1-.2,0,0,.1-.3.1-.3h.6c.8-.1,1.4-.3,2-.5.8-.2,1.4-.6,2-.8.7-.3,1.3-.6,1.8-.6,0,.5,0,.9.1,1.3,0,.4.1.7,0,1.2-1.5,0-1.3,1-1.3,1h2.6s.2-.6.6-1.3c.2-.3.4-.6.7-.9,0,0,0-.1,0-.2-.3-.4-.5-1.2-.5-1.2,0-.1.1-.2.1-.2,0,0,.2,0,.2.1,0,0,0,.6.6,1.1.3.3.8.6,1.2.8.5.2,1,.4,1.4.5.4.1.5.3.5.3h-.2c-.2,0-.5,0-.7.3-.3.3-.2.7-.2.7h1.8c.2,0,.3-.1.4-.4,0-.2.3-1,.3-1.1,0-.3,0-.4,0-.5-.2-.2-.5-.4-.7-.5h0ZM43.4,15.8c.3-.2.6-.2.9-.2,0,.5-.8.7-.9.2Z"/>
  <path fill="white" d="M41.6,17.7c.7,0,1.1,0,1.3-.1.2,0,.2-.2.2-.3-.4.1-.8.2-1.3.1-.6,0-.7-.4-.7-.6h0s0,0,0,0h0c-.2.3,0,.7.6.8h0Z"/>
  <path fill="white" d="M39.9,9.8c.3,0,.5-.3.5-.3,0,0,.7.1,1.5.6.4.2.9.5,1.3.9,0,0,1.1-.5,1.1-.5.1,0,.2,0,.2,0,0,0,0,.2,0,.3-.1,0-.8.4-1.5.8-.5.3-.9.6-1.4.8-.3,0-.5,0-.8,0-.7,0-1.1.6-1.1,1h2.6c.1,0,1.2-.3,2.3-.5.8-.2,1.6-.3,2-.4.2,0,.3,0,.3,0,0,0,.1,0,.2,0s0,0,.1-.2c0,0,.1-.3.1-.3h.6c.8-.1,1.4-.3,2-.5.8-.2,1.4-.6,2-.8.7-.3,1.3-.6,1.8-.6,0,.5,0,.9.1,1.3,0,.4.1.7,0,1.2-1.5,0-1.3,1-1.3,1h2.6s.2-.6.6-1.3c.2-.3.4-.6.7-.9,0,0,0-.1,0-.2-.3-.4-.5-1.2-.5-1.2,0-.1.1-.2.1-.2s.2,0,.2.1c0,0,0,.6.6,1.1.3.3.8.6,1.2.8.5.2,1,.4,1.4.5.4.1.5.3.5.3h-.2c-.2,0-.5,0-.7.3-.3.3-.2.7-.2.7h1.8c.2,0,.3-.1.4-.4,0-.2.3-1,.3-1.1,0-.3,0-.4,0-.5-.2-.2-.5-.4-.7-.5-.4-.2-.7-.4-.7-.4,0-.4-.2-1.1-.5-1.7-.2-.4-.3-.7-.5-.9h0c.6-.2,1.1-.8,1-1.6,0-.9-.9-1.9-3-1.5-.7.1-1.4.4-1.9.6-.6.2-1.2.5-1.9.8s-1.3.4-1.8.3c-.4,0-.7-.2-.9-.5-.3-.4.1-.8.3-.9.3-.2.5-.5.4-1-.3,0-.8.2-1.1.5-.3.2-.6.6-.6,1.1,0,.6.5,1.1,1.2,1.3.5.1.9.2,1.3,0,.7,0,1.5-.4,2.9-.9,1.4-.5,2.1-.8,2.7-.8.4,0,.7,0,1,.2.2,0,.4.2.5.3.1.2.2.3.2.5,0,.3-.2.6-.6.7,0,0-.2,0-.3,0-.1,0-.2,0-.4,0-.4,0-.9-.2-1.8,0-.5,0-1.1.2-1.9.4-1.6.5-2.7.7-3.6.7-1.3,0-2-.2-2.6-.5,0-.5-.2-1-.4-1.4-.3-.6-.6-1-.8-1.2,0,0,.1,0,.2-.5-.3,0-.8.1-.8.1,0,0-.8-.5-2-.4-.4,0-.7.2-.8.4-.9.3-1,.4-1.2.5-.2,0-.1.2-.1.2,0,0,0,.1,0,.1,0,0,0,0,0,.1,0,.3,0,.2,0,.5,0,0,.1,0,.2,0,.6-.2,1.1,0,1.1.4,0,.4-.3.6-.7.6h-.2c0,0-.1,0-.1,0,0,0,.1.3.1.4,0,.2.1.2.3.2.3,0,.7,0,.8-.1,0,0,0,.4.1.9-1-.4-1.8-.5-2.6-.4-.9,0-1.4.2-1.8.4-.7.4-.7.9-.7.9,0,0,1,.2,1.4.1h0ZM43.4,5.2c.3-.2.6-.2.9-.2,0,.5-.8.7-.9.2Z"/>
  <path fill="white" d="M41.6,7.1c.7,0,1.1,0,1.3-.1.2,0,.2-.2.2-.3-.4.1-.8.2-1.3.1-.6,0-.7-.4-.7-.6h0s0,0,0,0h0c-.2.3,0,.7.6.8h0Z"/>
<script xmlns=""/></svg>